<svg width="1152" height="356" viewBox="0 0 1152 356" fill="none" xmlns="http://www.w3.org/2000/svg">
<path fill-rule="evenodd" clip-rule="evenodd" d="M1066.38 197.282C1055.03 212.099 1034.36 219.256 1010.76 219.256C980.598 219.256 955.245 207.577 947.962 183.169C946.75 183.244 945.527 183.282 944.295 183.282C913.204 183.282 888 159.123 888 129.321C888 99.5184 913.204 75.359 944.295 75.359C944.37 75.359 944.444 75.3591 944.519 75.3594C946.958 49.9169 969.031 30 995.899 30C1011.12 30 1024.8 36.3915 1034.25 46.5583C1045.78 36.2732 1061.14 30 1078 30C1113.84 30 1142.89 58.361 1142.89 93.3462C1142.89 95.0351 1142.82 96.7086 1142.69 98.3642C1164.97 108.399 1180.42 130.393 1180.42 155.91C1180.42 190.895 1151.37 219.256 1115.53 219.256C1095.89 219.256 1078.28 210.739 1066.38 197.282Z" fill="url(#paint0_linear)"/>
<path fill-rule="evenodd" clip-rule="evenodd" d="M541.483 87.6664C535.532 95.4317 524.703 99.1825 512.332 99.1825C496.527 99.1825 483.241 93.0618 479.424 80.2706C478.789 80.3098 478.148 80.3296 477.502 80.3296C461.209 80.3296 448 67.6686 448 52.0503C448 36.4321 461.209 23.771 477.502 23.771C477.541 23.771 477.581 23.7711 477.62 23.7712C478.898 10.4377 490.465 0 504.546 0C512.523 0 519.693 3.34957 524.643 8.67763C530.689 3.28756 538.737 0 547.57 0C566.353 0 581.58 14.863 581.58 33.1974C581.58 34.0826 581.545 34.9596 581.475 35.8272C593.148 41.0861 601.248 52.6122 601.248 65.985C601.248 84.3195 586.022 99.1825 567.239 99.1825C556.945 99.1825 547.72 94.7189 541.483 87.6664Z" fill="url(#paint1_linear)"/>
<path fill-rule="evenodd" clip-rule="evenodd" d="M48.1132 334.986C58.6793 348.773 77.9063 355.433 99.8727 355.433C127.933 355.433 151.524 344.566 158.3 321.855C159.428 321.924 160.566 321.959 161.712 321.959C190.642 321.959 214.094 299.48 214.094 271.749C214.094 244.019 190.642 221.539 161.712 221.539C161.643 221.539 161.573 221.539 161.504 221.539C159.235 197.866 138.697 179.333 113.696 179.333C99.5329 179.333 86.8023 185.281 78.0137 194.741C67.2781 185.17 52.9902 179.333 37.3057 179.333C3.95625 179.333 -23.0788 205.723 -23.0788 238.276C-23.0788 239.847 -23.0158 241.404 -22.8921 242.945C-43.6172 252.282 -58 272.747 -58 296.49C-58 329.043 -30.9649 355.433 2.38452 355.433C20.6605 355.433 37.0401 347.508 48.1132 334.986Z" fill="url(#paint2_linear)"/>
<defs>
<linearGradient id="paint0_linear" x1="1034.21" y1="97.5135" x2="1034.21" y2="219.256" gradientUnits="userSpaceOnUse">
<stop stop-color="white"/>
<stop offset="1" stop-color="white" stop-opacity="0.158486"/>
</linearGradient>
<linearGradient id="paint1_linear" x1="524.624" y1="35.3814" x2="524.624" y2="99.1825" gradientUnits="userSpaceOnUse">
<stop stop-color="white"/>
<stop offset="1" stop-color="white" stop-opacity="0.158486"/>
</linearGradient>
<linearGradient id="paint2_linear" x1="78.047" y1="242.153" x2="78.047" y2="355.433" gradientUnits="userSpaceOnUse">
<stop stop-color="white"/>
<stop offset="1" stop-color="white" stop-opacity="0.158486"/>
</linearGradient>
</defs>
</svg>
