<svg width="121" height="33" viewBox="0 0 121 33" fill="none" xmlns="http://www.w3.org/2000/svg">
<path d="M26.0644 27.6171C26.0644 28.5255 25.9027 29.1995 25.5794 29.6391C25.2562 30.0786 24.7419 30.5035 24.0365 30.9138C23.6251 31.1482 23.1108 31.3827 22.4936 31.6171C21.8764 31.8222 21.2005 31.9981 20.4658 32.1446C19.731 32.3204 18.9522 32.4523 18.1293 32.5402C17.3358 32.6281 16.5423 32.672 15.7488 32.672C13.6328 32.672 11.6491 32.3937 9.79757 31.8369C7.94606 31.2508 6.32967 30.3863 4.94839 29.2435C3.59649 28.0713 2.52379 26.6208 1.73029 24.8918C0.93679 23.1629 0.540039 21.1556 0.540039 18.8698C0.540039 16.4669 0.966179 14.3717 1.81846 12.5841C2.70013 10.7966 3.8463 9.31673 5.25697 8.14457C6.69703 6.94311 8.32812 6.04934 10.1502 5.46326C12.0017 4.87718 13.8973 4.58414 15.837 4.58414C18.629 4.58414 20.8331 5.03835 22.4495 5.94677C24.0953 6.82589 24.9182 7.9834 24.9182 9.4193C24.9182 10.1812 24.7272 10.8405 24.3451 11.3973C23.9631 11.9541 23.5222 12.3937 23.0226 12.716C22.2879 12.2764 21.3621 11.8515 20.2453 11.4413C19.158 11.0017 17.9236 10.7819 16.5423 10.7819C14.0737 10.7819 12.1046 11.4852 10.6352 12.8918C9.19509 14.2984 8.47506 16.2471 8.47506 18.738C8.47506 20.086 8.66609 21.2581 9.04815 22.2545C9.45959 23.2215 10.0033 24.0274 10.6792 24.672C11.3552 25.2874 12.134 25.7563 13.0157 26.0786C13.8973 26.3717 14.8378 26.5182 15.837 26.5182C16.4836 26.5182 17.0566 26.4596 17.5563 26.3424C18.0559 26.2252 18.4379 26.0933 18.7024 25.9468V21.8149H13.9855C13.8092 21.4926 13.6328 21.0676 13.4565 20.5402C13.3095 20.0127 13.2361 19.4559 13.2361 18.8698C13.2361 17.8149 13.4712 17.053 13.9414 16.5841C14.441 16.1153 15.0729 15.8808 15.837 15.8808H23.2871C24.1688 15.8808 24.8447 16.1299 25.3149 16.6281C25.8146 17.097 26.0644 17.7709 26.0644 18.6501V27.6171Z" fill="#6F00E6"/>
<path d="M51.4151 21.2874C51.4151 23.1043 51.1359 24.7307 50.5775 26.1666C50.0191 27.5731 49.2256 28.76 48.197 29.727C47.1978 30.694 45.9928 31.4266 44.5822 31.9248C43.1715 32.423 41.5992 32.672 39.8652 32.672C38.1313 32.672 36.559 32.4083 35.1483 31.8808C33.7376 31.3534 32.518 30.6061 31.4894 29.6391C30.4902 28.6427 29.7114 27.4413 29.153 26.0347C28.5946 24.6281 28.3154 23.0457 28.3154 21.2874C28.3154 19.5585 28.5946 17.9907 29.153 16.5841C29.7114 15.1775 30.4902 13.9907 31.4894 13.0237C32.518 12.0274 33.7376 11.2655 35.1483 10.738C36.559 10.2105 38.1313 9.94677 39.8652 9.94677C41.5992 9.94677 43.1715 10.2252 44.5822 10.7819C45.9928 11.3094 47.1978 12.0713 48.197 13.0677C49.2256 14.0347 50.0191 15.2215 50.5775 16.6281C51.1359 18.0347 51.4151 19.5878 51.4151 21.2874ZM35.9859 21.2874C35.9859 23.075 36.3239 24.4523 36.9998 25.4193C37.7052 26.357 38.675 26.8259 39.9093 26.8259C41.1437 26.8259 42.0841 26.3424 42.7307 25.3753C43.4066 24.4083 43.7446 23.0457 43.7446 21.2874C43.7446 19.5292 43.4066 18.1812 42.7307 17.2435C42.0547 16.2764 41.0996 15.7929 39.8652 15.7929C38.6309 15.7929 37.6758 16.2764 36.9998 17.2435C36.3239 18.1812 35.9859 19.5292 35.9859 21.2874Z" fill="#6F00E6"/>
<path d="M58.4216 32.1006C57.1579 32.1006 56.1587 31.7343 55.4239 31.0017C54.6892 30.2691 54.3219 29.2728 54.3219 28.0127V5.28743C54.6451 5.22882 55.1594 5.15556 55.8648 5.06765C56.5701 4.95044 57.2461 4.89183 57.8926 4.89183C58.5686 4.89183 59.1564 4.95044 59.656 5.06765C60.185 5.15556 60.6258 5.33139 60.9785 5.59512C61.3311 5.85886 61.5956 6.22516 61.772 6.69402C61.9483 7.16289 62.0365 7.77828 62.0365 8.54018V25.9028H72.1316C72.3373 26.2252 72.5283 26.6647 72.7047 27.2215C72.881 27.749 72.9692 28.3057 72.9692 28.8918C72.9692 30.064 72.7194 30.8992 72.2197 31.3973C71.7201 31.8662 71.0589 32.1006 70.236 32.1006H58.4216Z" fill="#6F00E6"/>
<path d="M74.8513 4.67205C74.8513 3.55849 75.2187 2.62076 75.9534 1.85886C76.7175 1.09696 77.7168 0.716003 78.9511 0.716003C80.1854 0.716003 81.17 1.09696 81.9047 1.85886C82.6688 2.62076 83.0508 3.55849 83.0508 4.67205C83.0508 5.7856 82.6688 6.72333 81.9047 7.48523C81.17 8.24714 80.1854 8.62809 78.9511 8.62809C77.7168 8.62809 76.7175 8.24714 75.9534 7.48523C75.2187 6.72333 74.8513 5.7856 74.8513 4.67205ZM82.6982 31.9248C82.3749 31.9834 81.89 32.0567 81.2434 32.1446C80.6263 32.2618 79.9944 32.3204 79.3478 32.3204C78.7013 32.3204 78.1135 32.2764 77.5845 32.1885C77.0849 32.1006 76.6587 31.9248 76.3061 31.6611C75.9534 31.3973 75.6742 31.0457 75.4685 30.6061C75.2922 30.1372 75.204 29.5365 75.204 28.8039V10.9138C75.5273 10.8552 75.9975 10.7819 76.6147 10.694C77.2612 10.5768 77.9078 10.5182 78.5543 10.5182C79.2009 10.5182 79.774 10.5622 80.2736 10.6501C80.8026 10.738 81.2434 10.9138 81.5961 11.1775C81.9488 11.4413 82.2133 11.8076 82.3896 12.2764C82.5953 12.716 82.6982 13.3021 82.6982 14.0347V31.9248Z" fill="#6F00E6"/>
<path d="M104.221 25.5951C104.221 27.8222 103.383 29.5658 101.708 30.8259C100.033 32.086 97.5643 32.716 94.3021 32.716C93.0678 32.716 91.9216 32.6281 90.8636 32.4523C89.8056 32.2764 88.8945 32.0127 88.1304 31.6611C87.3957 31.2801 86.8079 30.8112 86.3671 30.2545C85.9557 29.6977 85.7499 29.0383 85.7499 28.2764C85.7499 27.5731 85.8969 26.9871 86.1908 26.5182C86.4847 26.02 86.8373 25.6098 87.2488 25.2874C88.101 25.7563 89.0709 26.1812 90.1583 26.5622C91.2751 26.9138 92.5535 27.0896 93.9935 27.0896C94.9046 27.0896 95.5952 26.9578 96.0655 26.694C96.5651 26.4303 96.8149 26.0786 96.8149 25.6391C96.8149 25.2288 96.6385 24.9065 96.2859 24.672C95.9332 24.4376 95.3454 24.2471 94.5225 24.1006L93.2 23.8369C90.6432 23.3387 88.7329 22.5622 87.4692 21.5072C86.2348 20.423 85.6177 18.8845 85.6177 16.8918C85.6177 15.8076 85.8528 14.8259 86.323 13.9468C86.7932 13.0677 87.4545 12.3351 88.3068 11.749C89.159 11.1629 90.173 10.7087 91.3485 10.3863C92.5535 10.064 93.876 9.90282 95.316 9.90282C96.4034 9.90282 97.4173 9.99073 98.3578 10.1666C99.3276 10.3131 100.165 10.5475 100.871 10.8698C101.576 11.1922 102.134 11.6171 102.546 12.1446C102.957 12.6427 103.163 13.2435 103.163 13.9468C103.163 14.6208 103.031 15.2068 102.766 15.705C102.531 16.1739 102.222 16.5695 101.84 16.8918C101.605 16.7453 101.253 16.5988 100.782 16.4523C100.312 16.2764 99.7979 16.1299 99.2395 16.0127C98.6811 15.8662 98.108 15.749 97.5202 15.6611C96.9618 15.5731 96.4475 15.5292 95.9773 15.5292C95.0075 15.5292 94.258 15.6464 93.729 15.8808C93.2 16.086 92.9355 16.423 92.9355 16.8918C92.9355 17.2142 93.0825 17.4779 93.3764 17.683C93.6703 17.8882 94.2286 18.0786 95.0515 18.2545L96.4181 18.5622C99.2395 19.2068 101.238 20.1006 102.413 21.2435C103.618 22.357 104.221 23.8076 104.221 25.5951Z" fill="#6F00E6"/>
<path d="M114.016 24.6281C114.016 25.39 114.251 25.9321 114.721 26.2545C115.221 26.5768 115.911 26.738 116.793 26.738C117.234 26.738 117.689 26.7087 118.16 26.6501C118.63 26.5622 119.041 26.4596 119.394 26.3424C119.658 26.6647 119.879 27.031 120.055 27.4413C120.261 27.8222 120.364 28.2911 120.364 28.8479C120.364 29.9614 119.938 30.8698 119.085 31.5731C118.262 32.2764 116.793 32.6281 114.677 32.6281C112.091 32.6281 110.092 32.042 108.682 30.8699C107.3 29.6977 106.61 27.7929 106.61 25.1556V6.34238C106.933 6.25447 107.388 6.16655 107.976 6.07864C108.593 5.96142 109.24 5.90281 109.916 5.90281C111.209 5.90281 112.208 6.13725 112.914 6.60611C113.648 7.04567 114.016 7.99805 114.016 9.46326V12.2764H119.791C119.967 12.5988 120.129 13.009 120.276 13.5072C120.452 13.9761 120.54 14.5035 120.54 15.0896C120.54 16.1153 120.305 16.8625 119.835 17.3314C119.394 17.7709 118.791 17.9907 118.027 17.9907H114.016V24.6281Z" fill="#6F00E6"/>
</svg>
